<svg id="svg" version="1.1" width="1125" height="1125" xmlns="http://www.w3.org/2000/svg"><path d="M535.000 10.278 C 534.725 10.539,530.450 11.005,525.500 11.313 C 501.198 12.824,461.052 18.663,442.000 23.456 C 441.175 23.664,438.250 24.344,435.500 24.967 C 412.204 30.247,376.080 41.954,351.554 52.172 C 262.795 89.150,184.443 149.513,124.123 227.385 C 112.994 241.754,92.734 272.177,83.630 288.194 C 46.827 352.939,23.337 423.928,14.539 497.000 C 8.084 550.609,8.977 595.399,17.631 652.000 C 25.564 703.892,41.481 754.299,65.571 803.822 C 78.862 831.145,88.062 847.389,102.841 869.626 C 172.501 974.435,274.916 1051.966,395.000 1090.797 C 426.847 1101.095,449.237 1106.101,492.500 1112.593 C 495.797 1113.088,497.197 1113.255,514.000 1115.155 C 529.748 1116.936,598.447 1116.945,614.000 1115.168 C 634.764 1112.797,630.472 1113.363,649.000 1110.548 C 745.148 1095.937,837.967 1054.592,913.906 992.551 C 974.644 942.927,1024.879 880.219,1059.343 811.000 C 1086.141 757.179,1104.020 699.801,1112.016 641.964 C 1112.660 637.309,1113.379 632.150,1113.614 630.500 C 1117.133 605.805,1118.621 565.923,1117.083 537.500 C 1115.673 511.444,1114.824 503.503,1110.405 475.000 C 1098.786 400.065,1069.892 325.525,1027.256 260.500 C 958.481 155.607,856.979 77.504,738.000 37.928 C 723.721 33.178,698.203 26.018,686.806 23.563 C 664.138 18.680,643.691 15.376,621.000 12.927 C 615.225 12.304,608.475 11.574,606.000 11.304 C 599.739 10.622,535.614 9.695,535.000 10.278 M659.000 279.500 L 659.000 339.000 615.131 339.000 C 566.460 339.000,558.614 339.692,547.241 344.988 C 538.546 349.038,530.749 356.701,526.449 365.425 C 522.026 374.398,521.013 380.785,521.006 399.750 L 521.000 415.000 662.000 415.000 L 803.000 415.000 803.000 636.000 L 803.000 857.000 731.000 857.000 L 659.000 857.000 659.000 695.500 L 659.000 534.000 590.000 534.000 L 521.000 534.000 521.000 695.500 L 521.000 857.000 449.003 857.000 L 377.006 857.000 376.753 695.750 L 376.500 534.500 335.250 534.239 L 294.000 533.978 294.000 474.489 L 294.000 415.000 335.394 415.000 L 376.788 415.000 377.275 384.250 C 377.698 357.538,378.049 352.187,379.947 343.500 C 392.738 284.942,434.478 242.866,495.495 227.020 C 507.325 223.948,509.494 223.521,521.000 222.002 C 533.408 220.364,534.313 220.342,597.750 220.168 L 659.000 220.000 659.000 279.500 " stroke="none" fill="white" fill-rule="evenodd"/></svg>